<svg id="visual" viewBox="0 0 900 600" width="900" height="600" xmlns="http://www.w3.org/2000/svg"
    xmlns:xlink="http://www.w3.org/1999/xlink" version="1.1">
    <rect x="0" y="0" width="900" height="600" fill="#001220"></rect>
    <path
        d="M0 248L21.5 245.7C43 243.3 86 238.7 128.8 232C171.7 225.3 214.3 216.7 257.2 217.8C300 219 343 230 385.8 223.8C428.7 217.7 471.3 194.3 514.2 189.3C557 184.3 600 197.7 642.8 196.2C685.7 194.7 728.3 178.3 771.2 175.2C814 172 857 182 878.5 187L900 192L900 0L878.5 0C857 0 814 0 771.2 0C728.3 0 685.7 0 642.8 0C600 0 557 0 514.2 0C471.3 0 428.7 0 385.8 0C343 0 300 0 257.2 0C214.3 0 171.7 0 128.8 0C86 0 43 0 21.5 0L0 0Z"
        fill="#23204c"></path>
    <path
        d="M0 161L21.5 155.2C43 149.3 86 137.7 128.8 134C171.7 130.3 214.3 134.7 257.2 133.3C300 132 343 125 385.8 128.2C428.7 131.3 471.3 144.7 514.2 151.5C557 158.3 600 158.7 642.8 160.8C685.7 163 728.3 167 771.2 173.2C814 179.3 857 187.7 878.5 191.8L900 196L900 0L878.5 0C857 0 814 0 771.2 0C728.3 0 685.7 0 642.8 0C600 0 557 0 514.2 0C471.3 0 428.7 0 385.8 0C343 0 300 0 257.2 0C214.3 0 171.7 0 128.8 0C86 0 43 0 21.5 0L0 0Z"
        fill="#49265f"></path>
    <path
        d="M0 131L21.5 125C43 119 86 107 128.8 106C171.7 105 214.3 115 257.2 123.7C300 132.3 343 139.7 385.8 140C428.7 140.3 471.3 133.7 514.2 126C557 118.3 600 109.7 642.8 114.5C685.7 119.3 728.3 137.7 771.2 140.5C814 143.3 857 130.7 878.5 124.3L900 118L900 0L878.5 0C857 0 814 0 771.2 0C728.3 0 685.7 0 642.8 0C600 0 557 0 514.2 0C471.3 0 428.7 0 385.8 0C343 0 300 0 257.2 0C214.3 0 171.7 0 128.8 0C86 0 43 0 21.5 0L0 0Z"
        fill="#73276b"></path>
    <path
        d="M0 77L21.5 78.3C43 79.7 86 82.3 128.8 87C171.7 91.7 214.3 98.3 257.2 102C300 105.7 343 106.3 385.8 106C428.7 105.7 471.3 104.3 514.2 105C557 105.7 600 108.3 642.8 107.5C685.7 106.7 728.3 102.3 771.2 95.3C814 88.3 857 78.7 878.5 73.8L900 69L900 0L878.5 0C857 0 814 0 771.2 0C728.3 0 685.7 0 642.8 0C600 0 557 0 514.2 0C471.3 0 428.7 0 385.8 0C343 0 300 0 257.2 0C214.3 0 171.7 0 128.8 0C86 0 43 0 21.5 0L0 0Z"
        fill="#9e246e"></path>
    <path
        d="M0 60L21.5 61.3C43 62.7 86 65.3 128.8 64.3C171.7 63.3 214.3 58.7 257.2 55.3C300 52 343 50 385.8 51.8C428.7 53.7 471.3 59.3 514.2 63.3C557 67.3 600 69.7 642.8 68.5C685.7 67.3 728.3 62.7 771.2 61.5C814 60.3 857 62.7 878.5 63.8L900 65L900 0L878.5 0C857 0 814 0 771.2 0C728.3 0 685.7 0 642.8 0C600 0 557 0 514.2 0C471.3 0 428.7 0 385.8 0C343 0 300 0 257.2 0C214.3 0 171.7 0 128.8 0C86 0 43 0 21.5 0L0 0Z"
        fill="#c62368"></path>
</svg>