<svg id="visual" viewBox="0 0 900 600" width="900" height="600" xmlns="http://www.w3.org/2000/svg"
    xmlns:xlink="http://www.w3.org/1999/xlink" version="1.1">
    <rect x="0" y="0" width="900" height="600" fill="#001220"></rect>
    <path
        d="M0 350L21.5 352.3C43 354.7 86 359.3 128.8 366C171.7 372.7 214.3 381.3 257.2 380.2C300 379 343 368 385.8 374.2C428.7 380.3 471.3 403.7 514.2 408.7C557 413.7 600 400.3 642.8 401.8C685.7 403.3 728.3 419.7 771.2 422.8C814 426 857 416 878.5 411L900 406L900 601L878.5 601C857 601 814 601 771.2 601C728.3 601 685.7 601 642.8 601C600 601 557 601 514.2 601C471.3 601 428.7 601 385.8 601C343 601 300 601 257.2 601C214.3 601 171.7 601 128.8 601C86 601 43 601 21.5 601L0 601Z"
        fill="#23204c"></path>
    <path
        d="M0 437L21.5 442.8C43 448.7 86 460.3 128.8 464C171.7 467.7 214.3 463.3 257.2 464.7C300 466 343 473 385.8 469.8C428.7 466.7 471.3 453.3 514.2 446.5C557 439.7 600 439.3 642.8 437.2C685.7 435 728.3 431 771.2 424.8C814 418.7 857 410.3 878.5 406.2L900 402L900 601L878.5 601C857 601 814 601 771.2 601C728.3 601 685.7 601 642.8 601C600 601 557 601 514.2 601C471.3 601 428.7 601 385.8 601C343 601 300 601 257.2 601C214.3 601 171.7 601 128.8 601C86 601 43 601 21.5 601L0 601Z"
        fill="#49265f"></path>
    <path
        d="M0 467L21.5 473C43 479 86 491 128.8 492C171.7 493 214.3 483 257.2 474.3C300 465.7 343 458.3 385.8 458C428.7 457.7 471.3 464.3 514.2 472C557 479.7 600 488.3 642.8 483.5C685.7 478.7 728.3 460.3 771.2 457.5C814 454.7 857 467.3 878.5 473.7L900 480L900 601L878.5 601C857 601 814 601 771.2 601C728.3 601 685.7 601 642.8 601C600 601 557 601 514.2 601C471.3 601 428.7 601 385.8 601C343 601 300 601 257.2 601C214.3 601 171.7 601 128.8 601C86 601 43 601 21.5 601L0 601Z"
        fill="#73276b"></path>
    <path
        d="M0 521L21.5 519.7C43 518.3 86 515.7 128.8 511C171.7 506.3 214.3 499.7 257.2 496C300 492.3 343 491.7 385.8 492C428.7 492.3 471.3 493.7 514.2 493C557 492.3 600 489.7 642.8 490.5C685.7 491.3 728.3 495.7 771.2 502.7C814 509.7 857 519.3 878.5 524.2L900 529L900 601L878.5 601C857 601 814 601 771.2 601C728.3 601 685.7 601 642.8 601C600 601 557 601 514.2 601C471.3 601 428.7 601 385.8 601C343 601 300 601 257.2 601C214.3 601 171.7 601 128.8 601C86 601 43 601 21.5 601L0 601Z"
        fill="#9e246e"></path>
    <path
        d="M0 538L21.5 536.7C43 535.3 86 532.7 128.8 533.7C171.7 534.7 214.3 539.3 257.2 542.7C300 546 343 548 385.8 546.2C428.7 544.3 471.3 538.7 514.2 534.7C557 530.7 600 528.3 642.8 529.5C685.7 530.7 728.3 535.3 771.2 536.5C814 537.7 857 535.3 878.5 534.2L900 533L900 601L878.5 601C857 601 814 601 771.2 601C728.3 601 685.7 601 642.8 601C600 601 557 601 514.2 601C471.3 601 428.7 601 385.8 601C343 601 300 601 257.2 601C214.3 601 171.7 601 128.8 601C86 601 43 601 21.5 601L0 601Z"
        fill="#c62368"></path>
</svg>